<?xml version="1.0" encoding="UTF-8" standalone="no"?>
<!-- Created with Inkscape (http://www.inkscape.org/) -->

<svg
   xmlns:dc="http://purl.org/dc/elements/1.1/"
   xmlns:cc="http://creativecommons.org/ns#"
   xmlns:rdf="http://www.w3.org/1999/02/22-rdf-syntax-ns#"
   xmlns:svg="http://www.w3.org/2000/svg"
   xmlns="http://www.w3.org/2000/svg"
   xmlns:sodipodi="http://sodipodi.sourceforge.net/DTD/sodipodi-0.dtd"
   xmlns:inkscape="http://www.inkscape.org/namespaces/inkscape"
   width="401.08081"
   height="98.254799"
   id="svg2"
   version="1.1"
   inkscape:version="0.47 r22583"
   sodipodi:docname="New document 1">
  <defs
     id="defs4">
    <inkscape:perspective
       sodipodi:type="inkscape:persp3d"
       inkscape:vp_x="0 : 526.18109 : 1"
       inkscape:vp_y="0 : 1000 : 0"
       inkscape:vp_z="744.09448 : 526.18109 : 1"
       inkscape:persp3d-origin="372.04724 : 350.78739 : 1"
       id="perspective10" />
    <inkscape:perspective
       id="perspective2898"
       inkscape:persp3d-origin="177.85715 : 94.761902 : 1"
       inkscape:vp_z="355.71429 : 142.14285 : 1"
       inkscape:vp_y="0 : 1000 : 0"
       inkscape:vp_x="0 : 142.14285 : 1"
       sodipodi:type="inkscape:persp3d" />
    <inkscape:perspective
       id="perspective3706"
       inkscape:persp3d-origin="0.5 : 0.33333333 : 1"
       inkscape:vp_z="1 : 0.5 : 1"
       inkscape:vp_y="0 : 1000 : 0"
       inkscape:vp_x="0 : 0.5 : 1"
       sodipodi:type="inkscape:persp3d" />
  </defs>
  <sodipodi:namedview
     id="base"
     pagecolor="#ffffff"
     bordercolor="#666666"
     borderopacity="1.0"
     inkscape:pageopacity="0.0"
     inkscape:pageshadow="2"
     inkscape:zoom="1.4"
     inkscape:cx="182.26928"
     inkscape:cy="46.765419"
     inkscape:document-units="px"
     inkscape:current-layer="layer1"
     showgrid="false"
     inkscape:window-width="1280"
     inkscape:window-height="773"
     inkscape:window-x="0"
     inkscape:window-y="1"
     inkscape:window-maximized="1" />
  <metadata
     id="metadata7">
    <rdf:RDF>
      <cc:Work
         rdf:about="">
        <dc:format>image/svg+xml</dc:format>
        <dc:type
           rdf:resource="http://purl.org/dc/dcmitype/StillImage" />
        <dc:title></dc:title>
      </cc:Work>
    </rdf:RDF>
  </metadata>
  <g
     inkscape:label="Layer 1"
     inkscape:groupmode="layer"
     id="layer1"
     transform="translate(4.2774336e-4,-954.42098)">
    <g
       id="g3698"
       transform="matrix(0.3431299,0,0,0.3431299,-41.317355,910.29633)">
      <g
         id="g3668">
        <rect
           width="345.71429"
           height="274.28571"
           x="125.71429"
           y="135.21933"
           id="rect2846"
           style="fill:#baeff6;fill-opacity:1;stroke:#6f8991;stroke-width:10;stroke-linejoin:round;stroke-miterlimit:4;stroke-opacity:1;stroke-dasharray:none;stroke-dashoffset:0" />
        <path
           d="m 333.35033,574.05493 a 65.154839,65.154839 0 1 1 -130.30967,0 65.154839,65.154839 0 1 1 130.30967,0 z"
           transform="matrix(1.3239753,0,0,1.3239753,-53.048596,-463.26647)"
           id="path3620"
           style="fill:#6f8991;fill-opacity:1;stroke:#6f8991;stroke-width:10.00018692;stroke-linejoin:round;stroke-miterlimit:4;stroke-opacity:1;stroke-dasharray:none;stroke-dashoffset:0" />
        <path
           d="m 249.50768,360.15515 -47.22463,48.23478 182.07999,0 -40.4061,-48.48732 -94.44926,0.25254 z"
           id="path3636"
           style="fill:none;stroke:#6f8991;stroke-width:1px;stroke-linecap:butt;stroke-linejoin:miter;stroke-opacity:1" />
        <path
           d="m 210.15737,401.30624 c 1.63971,-1.70147 9.57277,-9.82635 17.62902,-18.05529 12.97234,-13.25041 14.69798,-14.92572 15.08716,-14.64721 0.2417,0.17297 1.51981,1.13987 2.84026,2.14867 13.5082,10.32008 29.36681,16.60807 46.75275,18.53762 4.56866,0.50704 15.7926,0.43221 20.20306,-0.1347 15.09054,-1.93969 27.88442,-6.51789 39.74562,-14.2227 1.1646,-0.7565 2.1997,-1.28279 2.30022,-1.16954 0.10052,0.11324 5.8822,7.05284 12.84818,15.42132 l 12.6654,15.21543 -86.52648,0 -86.52649,0 2.9813,-3.0936 z"
           id="path3638"
           style="fill:#6f8991;fill-opacity:1;stroke:#6f8991;stroke-width:3.3436048;stroke-linejoin:round;stroke-miterlimit:4;stroke-opacity:1;stroke-dasharray:none;stroke-dashoffset:0" />
        <path
           d="m 302.54069,223.02694 c 3.03046,-1.51523 120.20815,-70.2056 131.8249,-59.09392 11.61676,11.11168 -45.45686,144.45181 -45.45686,144.45181 l -86.36804,-85.35789 z"
           id="path3640"
           style="fill:none;stroke:#6f8991;stroke-width:1px;stroke-linecap:butt;stroke-linejoin:miter;stroke-opacity:1" />
        <path
           d="m 392.67031,291.49177 c 0,-1.43825 -0.35074,-4.82857 -0.77942,-7.53406 -4.1003,-25.87783 -19.06455,-48.7876 -41.39445,-63.37355 -5.02172,-3.28021 -13.0602,-7.29896 -18.15932,-9.07856 -1.81853,-0.63468 -3.30451,-1.26835 -3.30217,-1.40817 0.005,-0.27936 0.11733,-0.34141 17.16835,-9.45677 16.09815,-8.60596 43.02671,-21.93139 52.27539,-25.86814 18.91485,-8.05122 29.92307,-10.77324 33.11515,-8.18845 5.92042,4.79407 -5.98343,45.71604 -32.85901,112.95967 -3.10874,7.77817 -5.74502,14.23683 -5.85839,14.35258 -0.11337,0.11575 -0.20613,-0.9663 -0.20613,-2.40455 z"
           id="path3642"
           style="fill:#6f8991;fill-opacity:1;stroke:#6f8991;stroke-width:6.68720961;stroke-linejoin:round;stroke-miterlimit:4;stroke-opacity:1;stroke-dasharray:none;stroke-dashoffset:0" />
        <path
           d="m 211.61159,290.78684 c 0,-1.43825 0.35074,-4.82857 0.77942,-7.53406 4.1003,-25.87783 19.06455,-48.7876 41.39445,-63.37355 5.02172,-3.28021 13.0602,-7.29896 18.15932,-9.07856 1.81853,-0.63468 3.30451,-1.26835 3.30217,-1.40817 -0.005,-0.27936 -0.11733,-0.34141 -17.16835,-9.45677 -16.09815,-8.60596 -43.02671,-21.93139 -52.27539,-25.86814 -18.91485,-8.05122 -29.92308,-10.77324 -33.11516,-8.18845 -5.92042,4.79407 5.98344,45.71604 32.85902,112.95967 3.10874,7.77817 5.74502,14.23683 5.85839,14.35258 0.11337,0.11575 0.20613,-0.9663 0.20613,-2.40455 z"
           id="path3642-2"
           style="fill:#6f8991;fill-opacity:1;stroke:#6f8991;stroke-width:6.68720961;stroke-linejoin:round;stroke-miterlimit:4;stroke-opacity:1;stroke-dasharray:none;stroke-dashoffset:0" />
        <path
           d="m 360,363.79075 37.85714,42.85715 -28.57143,0 -27.85714,-40 L 360,363.79075 z"
           id="path3666"
           style="fill:#6f8991;fill-opacity:1;stroke:#6f8991;stroke-width:1px;stroke-linecap:butt;stroke-linejoin:miter;stroke-opacity:1" />
      </g>
      <path
         d="m 204.37674,406.15102 36.25308,-42.59737"
         id="path3678"
         style="fill:#6f8991;fill-opacity:1;stroke:#6f8991;stroke-width:1px;stroke-linecap:butt;stroke-linejoin:miter;stroke-opacity:1" />
      <rect
         width="0.35350746"
         height="32.969818"
         ry="0.22097087"
         x="423.24442"
         y="129.88303"
         transform="matrix(0.77072453,0.6371685,-0.6371685,0.77072453,0,0)"
         id="rect3696"
         style="fill:#6f8991;fill-opacity:1;stroke:#6f8991;stroke-width:13.23999977;stroke-linejoin:round;stroke-miterlimit:4;stroke-opacity:1;stroke-dasharray:none;stroke-dashoffset:0" />
    </g>
    <text
       xml:space="preserve"
       style="font-size:40px;font-style:normal;font-variant:normal;font-weight:normal;font-stretch:normal;fill:#000000;fill-opacity:1;stroke:none;font-family:cmr10;-inkscape-font-specification:cmr10"
       x="131.88582"
       y="1013.9764"
       id="text2914"><tspan
         sodipodi:role="line"
         id="tspan2916"
         x="131.88582"
         y="1013.9764"
         style="font-size:56px;fill:#1e531d;fill-opacity:1"
         dx="0 -2.5253813 0 -0.71428573">Open<tspan
   style="font-size:56px;fill:#000000;fill-opacity:1"
   id="tspan3690"
   dx="0 -4.0406098 0 -1.4285715 -1.219362">Furry</tspan></tspan></text>
    <path
       style="fill:#6f8991;fill-opacity:1;stroke:#6f8991;stroke-width:1px;stroke-linecap:butt;stroke-linejoin:miter;stroke-opacity:1"
       d="M 35.860415,61.129432 9.0913729,58.604051"
       id="path3692"
       transform="translate(0,954.36218)" />
    <path
       style="fill:#6f8991;fill-opacity:1;stroke:#6f8991;stroke-width:1px;stroke-linecap:butt;stroke-linejoin:miter;stroke-opacity:1"
       d="M 36.365492,69.210652 C 7.0710678,71.230958 7.0710678,71.230958 7.0710678,71.230958"
       id="path3694"
       transform="translate(0,954.36218)" />
    <path
       style="fill:#6f8991;fill-opacity:1;stroke:#6f8991;stroke-width:1px;stroke-linecap:butt;stroke-linejoin:miter;stroke-opacity:1"
       d="m 11.616754,83.857864 29.7995,-8.586296"
       id="path3696"
       transform="translate(0,954.36218)" />
    <path
       style="fill:#6f8991;fill-opacity:1;stroke:#6f8991;stroke-width:1px;stroke-linecap:butt;stroke-linejoin:miter;stroke-opacity:1"
       d="m 87.378195,1015.9968 26.769045,-2.5254"
       id="path3692-3" />
    <path
       style="fill:#6f8991;fill-opacity:1;stroke:#6f8991;stroke-width:1px;stroke-linecap:butt;stroke-linejoin:miter;stroke-opacity:1"
       d="m 86.873125,1024.078 c 29.294425,2.0203 29.294425,2.0203 29.294425,2.0203"
       id="path3694-7" />
    <path
       style="fill:#6f8991;fill-opacity:1;stroke:#6f8991;stroke-width:1px;stroke-linecap:butt;stroke-linejoin:miter;stroke-opacity:1"
       d="m 111.62186,1038.7252 -29.799505,-8.5863"
       id="path3696-4" />
    <path
       style="fill:#1e414d;fill-opacity:1;stroke:#1e414d;stroke-width:0.25318992;stroke-opacity:1"
       d="m 1.3919171,1052.2024 c -0.3445007,-0.1752 -0.76898128,-0.6019 -0.94329007,-0.9482 -0.25078396,-0.4982 -0.31770199,-10.4726 -0.32064789,-47.7938 -0.004034,-51.10442 -0.07737054,-48.37922 1.31198176,-48.75333 0.3180767,-0.0856 27.2999081,-0.15728 59.9596241,-0.15919 58.092385,-0.003 59.394235,0.007 59.977485,0.48179 l 0.59618,0.48525 0.0681,47.68178 c 0.0513,35.8716 -0.005,47.8203 -0.2256,48.2408 -0.16156,0.3074 -0.63533,0.6786 -1.05283,0.825 -1.1976,0.4197 -118.54392,0.3606 -119.3710329,-0.06 l 0,0 z m 28.8649609,-4.4335 c 0.718424,-0.8028 1.676008,-1.8104 2.127962,-2.2392 0.451953,-0.4288 0.821735,-0.8622 0.821735,-0.9632 0,-0.101 1.699242,-2.2001 3.776095,-4.6646 l 3.776097,-4.481 -1.061327,-1.158 c -0.583729,-0.637 -1.430235,-1.5889 -1.881127,-2.1155 l -0.819799,-0.9574 -12.640743,3.6595 c -9.983442,2.8902 -12.624155,3.573 -12.561841,3.2477 0.05964,-0.3113 3.067395,-1.2752 12.324128,-3.9492 6.734875,-1.9457 12.280166,-3.5625 12.32287,-3.593 0.0427,-0.03 -0.311394,-0.6678 -0.78688,-1.416 -0.475486,-0.7482 -1.278934,-2.1886 -1.785439,-3.2008 -0.612364,-1.2237 -1.067929,-1.8403 -1.359684,-1.8401 -0.738715,5e-4 -22.31268,1.4956 -23.8615522,1.6537 -1.1833759,0.1208 -1.4520865,0.078 -1.4520865,-0.2296 0,-0.5021 0.1100189,-0.5137 13.7632557,-1.4402 6.38918,-0.4337 11.643662,-0.8154 11.676628,-0.8484 0.03297,-0.033 -0.158946,-0.686 -0.426474,-1.4512 -0.267527,-0.765 -0.714118,-2.5115 -0.992423,-3.8809 -0.278309,-1.3693 -0.559147,-2.5432 -0.62409,-2.6085 -0.09009,-0.091 -20.286202,-2.1007 -21.1871998,-2.1087 -0.1041715,-9e-4 -0.1894026,-0.1731 -0.1894026,-0.3825 0,-0.2095 0.1007287,-0.3808 0.2238413,-0.3808 0.3616211,0 18.7279511,1.7439 20.0422361,1.903 l 1.19955,0.1453 0,-1.481 c 0,-0.8146 -0.104473,-1.5896 -0.23216,-1.7223 -0.288312,-0.2995 -4.972834,-12.18975 -7.095668,-18.01027 -4.922569,-13.49699 -7.281673,-22.28843 -6.813318,-25.39052 0.662218,-4.38613 5.903478,-3.03652 24.368885,6.27488 6.085432,3.06866 11.026307,5.72126 12.300582,6.60379 0.639159,0.44267 0.779554,0.44892 2.146563,0.0956 3.88765,-1.00498 9.550606,-1.0136 13.891452,-0.0212 l 1.746987,0.39939 2.887319,-1.6225 c 4.008804,-2.25272 15.026178,-7.85127 19.428481,-9.8727 4.996581,-2.29433 9.287909,-3.7598 11.490429,-3.92393 1.59232,-0.11866 1.84873,-0.0704 2.58368,0.48632 l 0.81593,0.61805 -0.0838,2.64187 c -0.0662,2.08779 -0.29931,3.46707 -1.11139,6.57646 -1.81421,6.94642 -5.9239,18.64715 -10.476167,29.82676 -1.796014,4.4107 -2.298198,5.9181 -2.389094,7.1711 -0.106346,1.4661 -0.07592,1.5865 0.400728,1.5865 0.283695,0 4.681504,-0.3998 9.772913,-0.8885 5.0914,-0.4886 9.35782,-0.8884 9.48094,-0.8884 0.12311,0 0.22384,0.1566 0.22384,0.348 0,0.4216 0.0912,0.4098 -11.23789,1.4553 -4.861333,0.4486 -8.861,0.8294 -8.88815,0.8462 -0.02715,0.017 -0.173536,0.8118 -0.325299,1.7667 -0.151762,0.9549 -0.608042,2.7744 -1.013952,4.0431 -0.40591,1.2687 -0.692481,2.3526 -0.636823,2.4086 0.05566,0.056 5.477559,0.4828 12.048664,0.9485 6.57112,0.4658 11.97589,0.8534 12.01061,0.8613 0.0347,0.01 0.0631,0.1841 0.0631,0.3914 0,0.3052 -0.2762,0.3512 -1.4521,0.2422 -2.58096,-0.2394 -23.13438,-1.6285 -23.186342,-1.567 -0.02767,0.033 -0.417653,0.802 -0.866625,1.7095 -0.448976,0.9075 -1.257935,2.3055 -1.797689,3.1067 -0.539754,0.8012 -0.981373,1.5483 -0.981373,1.66 0,0.1119 5.31145,1.741 11.803223,3.6202 8.967606,2.596 11.822196,3.5166 11.882176,3.832 0.0628,0.3302 -2.41854,-0.3078 -12.112468,-3.1141 l -12.191426,-3.5293 -2.006134,2.0165 -2.006138,2.0165 0.823237,0.9707 c 0.452781,0.5339 1.29583,1.4921 1.873445,2.1294 0.577615,0.6373 2.811651,3.1774 4.964526,5.6446 l 3.914321,4.4857 12.058637,0 12.05862,0 0,-45.6919 0,-45.69209 -57.70465,0 -57.7046555,0 0,45.69209 0,45.6919 12.7717075,0 12.771707,0 1.306229,-1.4596 z"
       id="path3740" />
  </g>
</svg>
