<?xml version="1.0" encoding="UTF-8" standalone="no"?>
<!-- Created with Inkscape (http://www.inkscape.org/) -->

<svg
   xmlns:svg="http://www.w3.org/2000/svg"
   xmlns="http://www.w3.org/2000/svg"
   version="1.1"
   width="355.71429"
   height="284.28571"
   id="svg2">
  <defs
     id="defs4" />
  <g
     transform="translate(-120.71429,-130.21933)"
     id="layer1">
    <g
       id="g3698">
      <g
         id="g3668">
        <rect
           width="345.71429"
           height="274.28571"
           x="125.71429"
           y="135.21933"
           id="rect2846"
           style="fill:#baeff6;fill-opacity:1;stroke:#6f8991;stroke-width:10;stroke-linejoin:round;stroke-miterlimit:4;stroke-opacity:1;stroke-dasharray:none;stroke-dashoffset:0" />
        <path
           d="m 333.35033,574.05493 a 65.154839,65.154839 0 1 1 -130.30967,0 65.154839,65.154839 0 1 1 130.30967,0 z"
           transform="matrix(1.3239753,0,0,1.3239753,-53.048596,-463.26647)"
           id="path3620"
           style="fill:#6f8991;fill-opacity:1;stroke:#6f8991;stroke-width:10.00018692;stroke-linejoin:round;stroke-miterlimit:4;stroke-opacity:1;stroke-dasharray:none;stroke-dashoffset:0" />
        <path
           d="m 249.50768,360.15515 -47.22463,48.23478 182.07999,0 -40.4061,-48.48732 -94.44926,0.25254 z"
           id="path3636"
           style="fill:none;stroke:#6f8991;stroke-width:1px;stroke-linecap:butt;stroke-linejoin:miter;stroke-opacity:1" />
        <path
           d="m 210.15737,401.30624 c 1.63971,-1.70147 9.57277,-9.82635 17.62902,-18.05529 12.97234,-13.25041 14.69798,-14.92572 15.08716,-14.64721 0.2417,0.17297 1.51981,1.13987 2.84026,2.14867 13.5082,10.32008 29.36681,16.60807 46.75275,18.53762 4.56866,0.50704 15.7926,0.43221 20.20306,-0.1347 15.09054,-1.93969 27.88442,-6.51789 39.74562,-14.2227 1.1646,-0.7565 2.1997,-1.28279 2.30022,-1.16954 0.10052,0.11324 5.8822,7.05284 12.84818,15.42132 l 12.6654,15.21543 -86.52648,0 -86.52649,0 2.9813,-3.0936 z"
           id="path3638"
           style="fill:#6f8991;fill-opacity:1;stroke:#6f8991;stroke-width:3.3436048;stroke-linejoin:round;stroke-miterlimit:4;stroke-opacity:1;stroke-dasharray:none;stroke-dashoffset:0" />
        <path
           d="m 302.54069,223.02694 c 3.03046,-1.51523 120.20815,-70.2056 131.8249,-59.09392 11.61676,11.11168 -45.45686,144.45181 -45.45686,144.45181 l -86.36804,-85.35789 z"
           id="path3640"
           style="fill:none;stroke:#6f8991;stroke-width:1px;stroke-linecap:butt;stroke-linejoin:miter;stroke-opacity:1" />
        <path
           d="m 392.67031,291.49177 c 0,-1.43825 -0.35074,-4.82857 -0.77942,-7.53406 -4.1003,-25.87783 -19.06455,-48.7876 -41.39445,-63.37355 -5.02172,-3.28021 -13.0602,-7.29896 -18.15932,-9.07856 -1.81853,-0.63468 -3.30451,-1.26835 -3.30217,-1.40817 0.005,-0.27936 0.11733,-0.34141 17.16835,-9.45677 16.09815,-8.60596 43.02671,-21.93139 52.27539,-25.86814 18.91485,-8.05122 29.92307,-10.77324 33.11515,-8.18845 5.92042,4.79407 -5.98343,45.71604 -32.85901,112.95967 -3.10874,7.77817 -5.74502,14.23683 -5.85839,14.35258 -0.11337,0.11575 -0.20613,-0.9663 -0.20613,-2.40455 z"
           id="path3642"
           style="fill:#6f8991;fill-opacity:1;stroke:#6f8991;stroke-width:6.68720961;stroke-linejoin:round;stroke-miterlimit:4;stroke-opacity:1;stroke-dasharray:none;stroke-dashoffset:0" />
        <path
           d="m 211.61159,290.78684 c 0,-1.43825 0.35074,-4.82857 0.77942,-7.53406 4.1003,-25.87783 19.06455,-48.7876 41.39445,-63.37355 5.02172,-3.28021 13.0602,-7.29896 18.15932,-9.07856 1.81853,-0.63468 3.30451,-1.26835 3.30217,-1.40817 -0.005,-0.27936 -0.11733,-0.34141 -17.16835,-9.45677 -16.09815,-8.60596 -43.02671,-21.93139 -52.27539,-25.86814 -18.91485,-8.05122 -29.92308,-10.77324 -33.11516,-8.18845 -5.92042,4.79407 5.98344,45.71604 32.85902,112.95967 3.10874,7.77817 5.74502,14.23683 5.85839,14.35258 0.11337,0.11575 0.20613,-0.9663 0.20613,-2.40455 z"
           id="path3642-2"
           style="fill:#6f8991;fill-opacity:1;stroke:#6f8991;stroke-width:6.68720961;stroke-linejoin:round;stroke-miterlimit:4;stroke-opacity:1;stroke-dasharray:none;stroke-dashoffset:0" />
        <path
           d="m 360,363.79075 37.85714,42.85715 -28.57143,0 -27.85714,-40 L 360,363.79075 z"
           id="path3666"
           style="fill:#6f8991;fill-opacity:1;stroke:#6f8991;stroke-width:1px;stroke-linecap:butt;stroke-linejoin:miter;stroke-opacity:1" />
      </g>
      <path
         d="m 204.37674,406.15102 36.25308,-42.59737"
         id="path3678"
         style="fill:#6f8991;fill-opacity:1;stroke:#6f8991;stroke-width:1px;stroke-linecap:butt;stroke-linejoin:miter;stroke-opacity:1" />
      <rect
         width="0.35350746"
         height="32.969818"
         ry="0.22097087"
         x="423.24442"
         y="129.88303"
         transform="matrix(0.77072453,0.6371685,-0.6371685,0.77072453,0,0)"
         id="rect3696"
         style="fill:#6f8991;fill-opacity:1;stroke:#6f8991;stroke-width:13.23999977;stroke-linejoin:round;stroke-miterlimit:4;stroke-opacity:1;stroke-dasharray:none;stroke-dashoffset:0" />
    </g>
  </g>
</svg>
